<?xml version="1.0" standalone="no"?>
<!DOCTYPE svg PUBLIC "-//W3C//DTD SVG 20010904//EN"
 "http://www.w3.org/TR/2001/REC-SVG-20010904/DTD/svg10.dtd">
<svg version="1.0" xmlns="http://www.w3.org/2000/svg"
 width="225.000000pt" height="225.000000pt" viewBox="0 0 225.000000 225.000000"
 preserveAspectRatio="xMidYMid meet">
<metadata>
Created by potrace 1.16, written by Peter Selinger 2001-2019
</metadata>
<g transform="translate(0.000000,225.000000) scale(0.100000,-0.100000)"
fill="#000000" stroke="none">
<path d="M1563 2069 c-18 -5 -33 -14 -33 -19 0 -5 25 -17 55 -25 30 -9 55 -19
55 -22 0 -3 -7 -2 -16 1 -9 4 6 -14 34 -39 28 -25 72 -74 97 -108 93 -126 126
-167 136 -167 17 0 9 22 -21 57 -17 19 -44 58 -60 87 -36 64 -73 104 -125 139
-22 15 -36 27 -32 27 17 0 95 -60 118 -92 14 -18 42 -61 63 -95 63 -106 75
-85 20 37 -21 47 -21 51 -4 30 24 -31 54 -116 46 -135 -3 -8 -1 -17 5 -21 5
-3 9 -13 8 -22 -1 -10 20 -40 47 -68 l50 -50 17 22 c9 13 17 28 17 34 0 6 4 9
8 6 4 -2 6 12 4 32 -3 24 -14 45 -31 60 l-26 23 33 -16 c19 -9 37 -14 40 -10
3 3 5 34 4 68 -1 34 -3 70 -3 80 0 9 -5 17 -10 17 -6 0 -7 5 -4 10 3 6 -3 10
-14 10 -12 0 -33 14 -48 30 -33 37 -106 85 -159 104 -52 18 -229 28 -271 15z"/>
<path d="M1417 2010 c-35 -6 -87 -43 -87 -61 0 -5 18 -13 40 -19 22 -6 40 -13
40 -16 0 -3 -8 -3 -17 0 -10 2 -41 8 -70 11 l-52 7 -60 -59 c-33 -32 -80 -71
-105 -86 -30 -18 -49 -39 -57 -61 -9 -24 -17 -32 -29 -29 -9 3 -23 -1 -31 -9
-43 -41 -99 -56 -99 -27 0 5 -7 9 -15 9 -23 0 -18 -16 10 -28 29 -13 33 -40 8
-49 -49 -17 -113 -86 -113 -121 0 -5 19 -12 43 -14 45 -6 123 -35 115 -43 -3
-3 -25 4 -49 15 -25 11 -66 20 -93 20 -46 0 -53 -3 -96 -49 -30 -31 -50 -61
-54 -83 -4 -22 -15 -39 -30 -47 -21 -12 -71 -100 -71 -126 0 -5 -4 -13 -8 -16
-4 -3 -9 -31 -10 -61 -1 -31 -5 -54 -9 -51 -5 2 -8 -1 -8 -6 0 -19 22 -12 47
15 13 14 27 24 30 21 3 -3 -9 -19 -26 -36 -17 -17 -31 -27 -32 -23 0 4 -4 -3
-10 -16 -6 -16 -5 -31 3 -45 10 -20 10 -21 -5 -8 -15 12 -17 11 -17 -7 0 -12
6 -25 13 -29 8 -4 16 -16 20 -25 3 -10 15 -18 26 -18 28 0 109 -40 116 -57 3
-9 -5 -6 -21 6 -15 12 -40 21 -56 21 -17 0 -27 4 -23 10 3 6 -4 10 -16 10 -18
0 -19 -2 -9 -15 8 -9 10 -28 6 -49 -6 -32 -9 -34 -57 -39 -78 -10 -223 0 -264
17 -43 18 -115 21 -115 5 0 -7 9 -9 23 -6 12 3 40 -1 62 -10 97 -36 238 -48
307 -25 23 7 58 28 76 45 l32 31 1 -40 c0 -35 1 -37 11 -16 12 25 17 26 52 12
16 -6 27 -6 31 0 4 6 -1 13 -9 16 -9 3 -16 11 -16 17 0 5 8 3 18 -5 9 -9 27
-19 40 -22 12 -4 22 -12 22 -18 0 -6 3 -8 7 -5 3 4 17 0 31 -9 13 -8 30 -13
39 -10 11 5 10 -2 -6 -30 -23 -39 -23 -48 1 -39 21 8 51 62 36 67 -6 2 -8 10
-4 17 6 9 11 8 20 -4 15 -21 82 -30 129 -17 20 6 35 7 32 2 -3 -4 4 -6 16 -3
16 4 17 8 7 14 -10 7 -8 9 6 9 11 0 27 7 37 16 9 8 26 16 38 17 11 1 21 5 21
10 0 4 4 6 9 3 13 -8 62 34 55 46 -5 8 5 9 29 5 32 -5 37 -3 37 14 0 14 -4 18
-12 13 -7 -5 1 8 17 27 17 20 32 34 34 33 2 -2 -4 -14 -15 -26 l-19 -23 23 19
c21 18 29 55 15 70 -18 18 -10 36 17 36 16 0 42 11 58 25 16 13 32 22 36 18 3
-3 6 -4 6 0 0 3 -18 26 -39 51 -22 25 -60 88 -85 139 -43 87 -86 147 -86 118
0 -7 -9 -6 -26 5 -19 13 -28 14 -37 5 -8 -8 -6 -11 11 -11 15 0 20 -5 16 -15
-5 -13 -8 -13 -21 1 -9 8 -27 23 -40 31 -18 12 -21 18 -11 24 7 5 9 9 3 9 -5
0 -3 5 5 10 11 7 11 10 2 10 -7 0 -10 5 -7 10 4 6 1 19 -6 28 -11 14 -11 15 1
5 29 -27 32 -12 4 19 l-29 32 45 -35 c68 -54 144 -154 194 -254 34 -70 62
-109 125 -173 45 -46 85 -91 90 -100 5 -9 12 -14 16 -10 4 3 -12 43 -35 87
-37 70 -46 81 -69 81 -14 0 -33 5 -41 11 -11 7 0 9 41 7 48 -3 55 -1 57 16 0
10 -18 49 -41 85 -23 36 -48 77 -55 91 -24 47 -102 170 -109 170 -2 0 -1 -10
2 -21 7 -20 6 -21 -14 -7 -17 12 -28 13 -56 4 -19 -6 -35 -15 -35 -19 0 -5 -4
-5 -10 -2 -6 4 -3 16 7 31 12 19 18 22 25 12 6 -9 7 -7 5 7 -1 11 -6 25 -10
32 -9 14 8 27 23 18 23 -14 7 11 -30 47 -51 51 -51 59 1 17 59 -46 141 -152
189 -244 66 -124 124 -214 138 -215 7 0 25 -20 40 -45 15 -24 30 -45 35 -45 8
0 1 40 -15 82 -5 15 -7 32 -3 37 4 8 -2 8 -19 1 -39 -15 -31 -1 9 16 30 12 35
19 35 48 0 19 3 43 6 53 4 13 3 14 -4 5 -7 -11 -14 -6 -29 20 -12 18 -24 44
-27 58 -4 14 4 5 19 -21 21 -36 32 -46 56 -48 80 -6 131 -2 123 11 -3 4 1 8 9
8 7 0 15 8 16 18 7 54 2 75 -24 102 -16 17 -25 30 -22 30 4 0 3 9 -3 20 -20
37 -4 21 32 -32 43 -64 48 -78 36 -100 -5 -11 -5 -18 1 -18 25 0 21 43 -9 95
-33 58 -29 68 13 35 35 -28 52 -25 91 15 44 45 51 82 23 114 -12 13 -15 21 -7
17 8 -4 -19 25 -61 66 -42 40 -103 108 -135 151 -32 44 -69 87 -82 98 -14 10
-21 19 -18 19 12 0 -47 46 -81 64 -33 17 -99 19 -166 6z"/>
</g>
</svg>
